<?xml version="1.0" standalone="no"?>
<!DOCTYPE svg PUBLIC "-//W3C//DTD SVG 20010904//EN"
 "http://www.w3.org/TR/2001/REC-SVG-20010904/DTD/svg10.dtd">
<svg version="1.0" xmlns="http://www.w3.org/2000/svg"
 width="234.000000pt" height="232.000000pt" viewBox="0 0 234.000000 232.000000"
 preserveAspectRatio="xMidYMid meet">

<g transform="translate(0.000000,232.000000) scale(0.100000,-0.100000)"
fill="#fff" stroke="none">
<path d="M1033 2280 c-446 -56 -807 -350 -947 -770 -46 -141 -60 -241 -53
-408 12 -337 162 -628 436 -846 121 -97 326 -192 452 -210 33 -5 22 1 -41 22
-168 57 -283 127 -412 250 -239 230 -354 539 -327 879 35 449 361 832 809 950
95 25 121 28 270 27 146 0 176 -3 265 -27 371 -99 659 -379 770 -747 18 -60
24 -72 19 -40 -18 135 -118 359 -219 490 -93 121 -247 247 -390 318 -184 91
-437 136 -632 112z"/>
<path d="M1610 1936 c0 -3 17 -14 38 -25 154 -78 319 -278 391 -472 68 -182
69 -436 1 -615 -106 -285 -331 -492 -625 -576 -69 -19 -102 -23 -235 -22 -139
1 -164 3 -244 28 -304 92 -534 319 -622 616 -28 92 -31 61 -5 -43 83 -321 348
-591 664 -677 403 -109 824 47 1052 391 96 145 145 299 152 479 6 147 -6 241
-47 359 -78 223 -233 406 -440 519 -44 24 -80 41 -80 38z"/>
<path d="M776 1749 c-134 -21 -237 -157 -223 -295 10 -100 29 -123 335 -419
158 -153 297 -294 309 -314 63 -100 -10 -231 -129 -231 -65 0 -89 14 -177 104
-73 73 -74 75 -62 105 43 102 -30 210 -133 197 -50 -6 -86 -32 -110 -80 -24
-49 -15 -97 29 -144 33 -36 35 -37 108 -37 l75 0 83 -80 c116 -111 181 -127
282 -72 104 58 121 211 32 297 -19 18 -35 37 -35 41 0 7 68 33 112 43 33 8 77
-10 136 -54 55 -40 49 -48 -9 -15 -48 26 -129 57 -129 49 0 -3 9 -22 20 -44
24 -46 70 -84 129 -105 51 -18 82 -19 134 -4 l38 10 -38 26 c-21 14 -66 51
-100 83 -39 37 -75 61 -100 67 l-38 10 117 38 117 38 64 -31 c35 -16 83 -47
106 -67 43 -39 51 -34 26 14 -22 43 -70 78 -117 86 l-42 7 37 19 c40 21 61 48
72 94 6 29 6 29 -22 -10 -45 -61 -97 -95 -176 -116 -40 -10 -74 -19 -76 -19
-2 0 11 13 28 29 17 16 38 45 46 65 19 46 19 136 0 162 -8 10 -15 14 -15 8 0
-7 -29 -41 -65 -76 -63 -63 -65 -67 -65 -116 0 -28 4 -53 9 -56 13 -9 86 78
98 116 9 28 11 29 12 9 1 -13 -11 -46 -26 -73 -33 -60 -69 -82 -210 -128
l-102 -33 -248 239 c-276 267 -295 292 -294 393 0 32 6 74 14 93 51 121 205
183 323 129 23 -11 76 -51 117 -90 41 -39 78 -71 83 -71 5 0 41 32 79 71 113
115 211 145 315 98 95 -43 144 -117 144 -219 1 -53 -5 -74 -29 -118 -44 -81
-74 -102 -144 -102 l-58 0 -32 60 c-18 33 -36 60 -41 60 -5 0 -29 -43 -54 -95
-24 -52 -51 -95 -59 -95 -7 0 -21 16 -30 35 -9 19 -21 35 -27 35 -6 0 -18 -16
-27 -35 -27 -56 -44 -45 -96 61 -53 107 -58 108 -96 26 l-23 -49 -60 -6 c-33
-3 -62 -8 -65 -10 -15 -16 16 -27 72 -27 l65 0 26 42 c31 49 30 50 94 -73 23
-44 47 -79 54 -79 7 0 19 14 27 32 20 44 36 45 56 4 9 -20 23 -36 30 -36 8 0
33 43 58 95 24 52 50 95 58 95 7 0 21 -16 30 -35 l17 -35 82 0 83 0 41 48 c57
66 76 107 82 178 7 87 -18 155 -78 214 -60 61 -126 84 -221 78 -83 -6 -130
-32 -213 -117 l-59 -60 -66 61 c-101 92 -183 123 -285 107z m5 -918 c42 -42
40 -92 -5 -137 -66 -66 -165 -24 -166 69 0 88 108 131 171 68z"/>
<path d="M2281 1274 c0 -11 3 -14 6 -6 3 7 2 16 -1 19 -3 4 -6 -2 -5 -13z"/>
<path d="M282 970 c0 -14 2 -19 5 -12 2 6 2 18 0 25 -3 6 -5 1 -5 -13z"/>
<path d="M978 33 c6 -2 18 -2 25 0 6 3 1 5 -13 5 -14 0 -19 -2 -12 -5z"/>
<path d="M1038 23 c6 -2 18 -2 25 0 6 3 1 5 -13 5 -14 0 -19 -2 -12 -5z"/>
</g>
</svg>
