
<svg version="1.0" xmlns="http://www.w3.org/2000/svg"
 width="471.000000pt" height="203.000000pt" viewBox="0 0 471.000000 203.000000"
 preserveAspectRatio="xMidYMid meet">

<g transform="translate(0.000000,203.000000) scale(0.100000,-0.100000)"
fill="#000000" stroke="none">
<path d="M689 1949 c-10 -6 -8 -9 9 -9 13 0 34 -12 49 -26 32 -32 45 -23 14
10 -26 28 -53 37 -72 25z"/>
<path d="M3428 1933 c7 -3 16 -2 19 1 4 3 -2 6 -13 5 -11 0 -14 -3 -6 -6z"/>
<path d="M4078 1933 c12 -2 30 -2 40 0 9 3 -1 5 -23 4 -22 0 -30 -2 -17 -4z"/>
<path d="M1048 1923 c18 -2 45 -2 60 0 15 2 0 4 -33 4 -33 0 -45 -2 -27 -4z"/>
<path d="M1308 1923 c12 -2 32 -2 45 0 12 2 2 4 -23 4 -25 0 -35 -2 -22 -4z"/>
<path d="M2803 1923 c20 -2 54 -2 75 0 20 2 3 4 -38 4 -41 0 -58 -2 -37 -4z"/>
<path d="M3063 1923 c31 -2 83 -2 115 0 31 2 5 3 -58 3 -63 0 -89 -1 -57 -3z"/>
<path d="M3379 1913 c-13 -16 -12 -17 4 -4 16 13 21 21 13 21 -2 0 -10 -8 -17
-17z"/>
<path d="M4489 1913 c-13 -16 -12 -17 4 -4 16 13 21 21 13 21 -2 0 -10 -8 -17
-17z"/>
<path d="M894 1876 c-3 -8 -4 -23 -2 -33 3 -11 6 -6 9 15 6 34 2 42 -7 18z"/>
<path d="M3356 1875 c-9 -26 -7 -32 5 -12 6 10 9 21 6 23 -2 3 -7 -2 -11 -11z"/>
<path d="M1412 1855 c0 -16 2 -22 5 -12 2 9 2 23 0 30 -3 6 -5 -1 -5 -18z"/>
<path d="M3510 1745 c0 -122 2 -135 18 -135 13 0 14 2 3 9 -11 7 -13 34 -8
135 4 76 2 126 -4 126 -5 0 -9 -57 -9 -135z"/>
<path d="M311 1803 c-1 -43 3 -73 9 -73 11 0 11 70 0 115 -6 23 -8 12 -9 -42z"/>
<path d="M1755 1860 c-3 -5 -1 -10 4 -10 6 0 11 5 11 10 0 6 -2 10 -4 10 -3 0
-8 -4 -11 -10z"/>
<path d="M2252 1845 c0 -16 2 -22 5 -12 2 9 2 23 0 30 -3 6 -5 -1 -5 -18z"/>
<path d="M3794 1765 c0 -60 1 -84 3 -52 2 32 2 81 0 110 -2 29 -3 3 -3 -58z"/>
<path d="M2413 1800 c0 -30 2 -43 4 -27 2 15 2 39 0 55 -2 15 -4 2 -4 -28z"/>
<path d="M1716 1800 c-9 -17 -13 -30 -8 -30 10 0 37 48 31 55 -3 2 -13 -9 -23
-25z"/>
<path d="M3353 1795 c0 -22 2 -30 4 -17 2 12 2 30 0 40 -3 9 -5 -1 -4 -23z"/>
<path d="M4415 1820 c-3 -5 -1 -10 4 -10 6 0 11 5 11 10 0 6 -2 10 -4 10 -3 0
-8 -4 -11 -10z"/>
<path d="M4397 1793 c-4 -3 -7 -13 -7 -22 1 -13 3 -13 11 2 11 19 8 33 -4 20z"/>
<path d="M1130 1750 c-26 -5 -13 -8 50 -8 47 -1 103 3 125 7 32 7 23 9 -50 9
-49 -1 -106 -4 -125 -8z"/>
<path d="M2863 1753 l27 -4 0 -294 c0 -162 3 -296 8 -298 4 -3 7 131 6 296
l-1 302 -34 1 c-27 2 -28 1 -6 -3z"/>
<path d="M1060 1680 c0 -38 4 -70 8 -70 4 0 8 32 9 70 0 39 -3 70 -8 70 -5 0
-9 -31 -9 -70z"/>
<path d="M3128 1743 c12 -2 32 -2 45 0 12 2 2 4 -23 4 -25 0 -35 -2 -22 -4z"/>
<path d="M1677 1733 c-4 -3 -7 -11 -7 -17 0 -6 5 -5 12 2 6 6 9 14 7 17 -3 3
-9 2 -12 -2z"/>
<path d="M3953 1685 c0 -33 2 -45 4 -27 2 18 2 45 0 60 -2 15 -4 0 -4 -33z"/>
<path d="M3064 1620 c0 -63 1 -89 3 -57 2 31 2 83 0 115 -2 31 -3 5 -3 -58z"/>
<path d="M1657 1693 c-4 -3 -7 -11 -7 -17 0 -6 5 -5 12 2 6 6 9 14 7 17 -3 3
-9 2 -12 -2z"/>
<path d="M2254 1470 c0 -118 2 -167 3 -107 2 59 2 155 0 215 -1 59 -3 10 -3
-108z"/>
<path d="M4317 1674 c-8 -8 3 -34 14 -34 11 0 12 27 0 34 -4 3 -11 3 -14 0z"/>
<path d="M1626 1636 c-18 -28 -20 -36 -8 -36 10 0 35 50 29 57 -2 2 -12 -8
-21 -21z"/>
<path d="M1802 1605 c-11 -23 -10 -24 11 -21 12 2 21 10 19 17 -7 27 -19 29
-30 4z"/>
<path d="M315 1610 c3 -5 41 -9 83 -9 57 1 69 3 47 9 -46 12 -137 12 -130 0z"/>
<path d="M548 1613 c7 -3 16 -2 19 1 4 3 -2 6 -13 5 -11 0 -14 -3 -6 -6z"/>
<path d="M1243 1613 c9 -2 23 -2 30 0 6 3 -1 5 -18 5 -16 0 -22 -2 -12 -5z"/>
<path d="M3583 1613 c20 -2 54 -2 75 0 20 2 3 4 -38 4 -41 0 -58 -2 -37 -4z"/>
<path d="M3721 1616 c10 -9 79 -14 74 -5 -4 5 -22 9 -42 9 -20 0 -34 -2 -32
-4z"/>
<path d="M1315 1600 c3 -5 8 -10 11 -10 2 0 4 5 4 10 0 6 -5 10 -11 10 -5 0
-7 -4 -4 -10z"/>
<path d="M1593 1573 c-3 -10 -33 -73 -65 -141 -33 -67 -58 -128 -55 -135 2 -6
16 13 30 43 13 30 45 99 71 153 25 53 41 97 35 97 -5 0 -12 -8 -16 -17z"/>
<path d="M4445 1530 c-3 -5 -1 -10 4 -10 6 0 11 5 11 10 0 6 -2 10 -4 10 -3 0
-8 -4 -11 -10z"/>
<path d="M1760 1519 c0 -5 5 -7 10 -4 6 3 10 8 10 11 0 2 -4 4 -10 4 -5 0 -10
-5 -10 -11z"/>
<path d="M2050 1492 c6 -13 14 -21 18 -18 3 4 -2 14 -12 24 -18 16 -18 16 -6
-6z"/>
<path d="M579 1441 c7 -5 17 -15 22 -22 6 -10 9 -8 9 9 0 16 -6 22 -22 22 -17
0 -19 -3 -9 -9z"/>
<path d="M1060 1440 c0 -5 5 -10 10 -10 6 0 10 5 10 10 0 6 -4 10 -10 10 -5 0
-10 -4 -10 -10z"/>
<path d="M1173 1443 c26 -2 67 -2 90 0 23 2 2 3 -48 3 -49 0 -68 -1 -42 -3z"/>
<path d="M1720 1440 c0 -5 5 -10 10 -10 6 0 10 5 10 10 0 6 -4 10 -10 10 -5 0
-10 -4 -10 -10z"/>
<path d="M1865 1440 c-18 -8 -17 -9 8 -9 15 -1 27 4 27 9 0 12 -8 12 -35 0z"/>
<path d="M3354 1315 c0 -77 2 -107 3 -67 2 40 2 103 0 140 -2 37 -3 4 -3 -73z"/>
<path d="M3511 1418 c1 -22 3 -26 6 -13 3 11 10 26 15 33 8 9 6 12 -6 12 -12
0 -16 -9 -15 -32z"/>
<path d="M3573 1443 c15 -2 39 -2 55 0 15 2 2 4 -28 4 -30 0 -43 -2 -27 -4z"/>
<path d="M3743 1443 c9 -2 25 -2 35 0 9 3 1 5 -18 5 -19 0 -27 -2 -17 -5z"/>
<path d="M4414 1360 c0 -52 1 -74 3 -47 2 26 2 68 0 95 -2 26 -3 4 -3 -48z"/>
<path d="M591 1384 c0 -11 3 -14 6 -6 3 7 2 16 -1 19 -3 4 -6 -2 -5 -13z"/>
<path d="M4244 1280 c0 -69 1 -97 3 -62 2 34 2 90 0 125 -2 34 -3 6 -3 -63z"/>
<path d="M774 1270 c0 -52 1 -74 3 -47 2 26 2 68 0 95 -2 26 -3 4 -3 -48z"/>
<path d="M3793 1285 c0 -33 2 -45 4 -27 2 18 2 45 0 60 -2 15 -4 0 -4 -33z"/>
<path d="M2420 1298 c0 -16 10 -18 98 -16 l97 2 -90 3 c-55 3 -92 8 -97 16 -5
8 -8 6 -8 -5z"/>
<path d="M1060 1284 c0 -8 5 -12 10 -9 6 4 8 11 5 16 -9 14 -15 11 -15 -7z"/>
<path d="M1213 1283 c9 -2 23 -2 30 0 6 3 -1 5 -18 5 -16 0 -22 -2 -12 -5z"/>
<path d="M1301 1286 c12 -10 60 -16 54 -6 -3 5 -18 10 -32 10 -15 0 -24 -2
-22 -4z"/>
<path d="M1878 1283 c17 -2 47 -2 65 0 17 2 3 4 -33 4 -36 0 -50 -2 -32 -4z"/>
<path d="M1451 1249 c-13 -38 -13 -39 -3 -39 5 0 13 16 19 35 14 44 -1 47 -16
4z"/>
<path d="M1631 1229 c-22 -53 -30 -100 -11 -69 19 34 49 120 41 120 -4 0 -18
-23 -30 -51z"/>
<path d="M3510 1215 c0 -32 3 -55 7 -51 7 7 5 98 -3 105 -2 2 -4 -22 -4 -54z"/>
<path d="M3069 1208 c-3 -22 -1 -34 4 -29 5 5 7 21 5 37 -3 27 -4 26 -9 -8z"/>
<path d="M2250 1206 c0 -14 4 -27 8 -30 5 -3 6 8 4 25 -5 35 -12 38 -12 5z"/>
<path d="M892 1190 c0 -14 2 -19 5 -12 2 6 2 18 0 25 -3 6 -5 1 -5 -13z"/>
<path d="M2742 1190 c0 -14 2 -19 5 -12 2 6 2 18 0 25 -3 6 -5 1 -5 -13z"/>
<path d="M1375 1180 c3 -5 8 -10 11 -10 2 0 4 5 4 10 0 6 -5 10 -11 10 -5 0
-7 -4 -4 -10z"/>
<path d="M615 1140 c10 -11 20 -20 23 -20 3 0 -3 9 -13 20 -10 11 -20 20 -23
20 -3 0 3 -9 13 -20z"/>
<path d="M1367 1153 c-4 -3 -7 -11 -7 -17 0 -6 5 -5 12 2 6 6 9 14 7 17 -3 3
-9 2 -12 -2z"/>
<path d="M1574 1128 l-19 -23 23 19 c21 18 27 26 19 26 -2 0 -12 -10 -23 -22z"/>
<path d="M2270 1146 c0 -2 8 -10 18 -17 15 -13 16 -12 3 4 -13 16 -21 21 -21
13z"/>
<path d="M3382 1130 c7 -11 17 -20 22 -20 5 0 1 9 -9 20 -10 11 -20 20 -22 20
-2 0 2 -9 9 -20z"/>
<path d="M4265 1130 c10 -11 20 -20 23 -20 3 0 -3 9 -13 20 -10 11 -20 20 -23
20 -3 0 3 -9 13 -20z"/>
<path d="M1445 1130 c3 -5 11 -10 16 -10 6 0 7 5 4 10 -3 6 -11 10 -16 10 -6
0 -7 -4 -4 -10z"/>
<path d="M2922 1126 c7 -8 15 -12 17 -11 5 6 -10 25 -20 25 -5 0 -4 -6 3 -14z"/>
<path d="M948 1113 c6 -2 18 -2 25 0 6 3 1 5 -13 5 -14 0 -19 -2 -12 -5z"/>
<path d="M1088 1113 c29 -2 74 -2 100 0 26 2 2 3 -53 3 -55 0 -76 -1 -47 -3z"/>
<path d="M2513 1113 c26 -2 67 -2 90 0 23 2 2 3 -48 3 -49 0 -68 -1 -42 -3z"/>
<path d="M2768 967 c-37 -34 -40 -67 -36 -405 l3 -293 36 -33 c41 -39 77 -41
116 -4 23 21 24 28 22 123 -1 55 1 134 4 175 4 41 3 151 -1 244 -7 165 -8 169
-32 187 -43 32 -82 34 -112 6z"/>
<path d="M573 961 c-12 -10 -25 -30 -28 -44 -10 -38 -11 -647 -2 -647 5 0 6
-3 3 -8 -6 -10 14 -35 46 -56 20 -13 36 -16 59 -11 37 8 74 39 65 54 -4 5 -2
12 3 15 5 3 8 55 6 116 -1 78 2 113 10 120 8 6 57 10 121 8 l109 -3 5 -123 5
-124 33 -29 c31 -28 63 -36 96 -23 9 3 16 12 16 19 0 7 5 15 11 17 8 3 12 76
12 248 0 452 1 433 -25 458 -37 34 -78 37 -113 7 -30 -25 -30 -25 -33 -147 -3
-79 -8 -126 -15 -130 -7 -4 -63 -8 -124 -8 l-113 0 0 119 c0 66 -4 121 -8 123
-4 2 -18 18 -31 36 -26 38 -72 43 -108 13z"/>
<path d="M3848 966 c-61 -16 -119 -57 -154 -108 -35 -50 -47 -163 -21 -190 9
-9 13 -18 10 -22 -3 -3 2 -8 11 -12 9 -3 14 -9 11 -14 -14 -23 100 -84 205
-110 91 -23 110 -33 110 -57 0 -13 -11 -35 -25 -48 -45 -46 -138 -29 -232 41
-45 34 -64 30 -93 -16 -13 -22 -30 -42 -37 -44 -21 -8 -16 -20 33 -74 67 -74
144 -106 254 -106 74 1 94 5 150 31 95 45 128 89 145 190 9 55 -16 130 -54
167 -28 27 -117 62 -217 85 -60 14 -99 49 -90 79 12 37 98 43 178 11 76 -30
98 -19 144 69 16 31 -3 54 -66 86 -91 47 -186 61 -262 42z"/>
<path d="M1502 887 c-29 -46 -75 -135 -103 -198 -28 -63 -64 -142 -79 -175
-16 -34 -35 -81 -43 -105 -9 -24 -25 -65 -37 -92 -25 -56 -20 -81 20 -102 64
-33 110 -10 153 79 15 30 34 59 41 63 8 4 72 6 142 3 l127 -5 40 -78 c27 -54
44 -77 53 -73 8 3 14 1 14 -5 0 -6 9 -8 19 -4 11 3 29 8 42 10 27 5 59 33 59
51 0 7 -9 30 -19 51 -11 21 -49 103 -86 183 -36 80 -72 150 -80 156 -8 6 -12
14 -8 17 3 4 1 7 -5 7 -7 0 -11 3 -10 8 4 14 -13 52 -23 52 -6 0 -7 5 -4 10 3
6 2 10 -3 10 -5 0 -22 28 -37 63 -15 34 -32 65 -37 68 -5 3 -9 8 -8 10 7 20
-41 78 -65 79 -6 0 -34 -38 -63 -83z m110 -294 c15 -31 25 -60 22 -65 -3 -4
-32 -8 -65 -8 -52 0 -59 2 -59 20 0 10 6 23 13 27 6 4 20 25 29 46 10 20 21
37 25 37 5 0 20 -26 35 -57z"/>
<path d="M2040 950 c-20 -20 -20 -27 -15 -359 2 -186 7 -345 10 -354 10 -25
32 -29 200 -28 225 2 297 25 351 116 27 46 42 134 30 179 -3 14 -20 42 -38 61
l-31 36 21 43 c33 65 36 98 17 160 -21 66 -46 93 -117 128 -49 24 -67 27 -230
33 -170 6 -178 5 -198 -15z m364 -166 c21 -8 21 -67 0 -88 -11 -12 -38 -16
-95 -17 -43 -1 -85 -2 -91 -3 -14 -1 -24 75 -14 100 4 11 28 14 95 14 49 0 96
-3 105 -6z m11 -278 c43 -18 47 -51 11 -92 -22 -26 -29 -28 -120 -32 l-96 -4
0 64 c0 36 3 68 7 71 12 13 163 7 198 -7z"/>
<path d="M3053 963 c-7 -2 -13 -11 -13 -18 0 -7 -5 -15 -11 -17 -5 -2 -11 -10
-12 -18 -2 -8 -6 -20 -10 -27 -4 -6 -3 -14 2 -18 6 -3 8 -12 5 -19 -8 -22 74
-56 128 -54 26 1 49 0 52 -3 3 -2 7 -123 11 -268 3 -150 10 -272 16 -283 11
-21 55 -43 79 -39 8 2 29 17 47 34 l32 32 1 255 c0 140 4 260 8 265 4 6 42 10
84 10 65 0 81 3 98 21 32 32 37 93 10 127 l-21 27 -247 -1 c-136 0 -253 -3
-259 -6z"/>
<path d="M233 728 c-38 -27 -57 -71 -43 -98 24 -45 144 -88 156 -56 3 9 10 14
15 11 4 -3 15 9 24 26 50 96 -61 180 -152 117z"/>
<path d="M4341 723 c-61 -76 -25 -149 77 -158 27 -3 40 2 63 26 64 66 21 159
-73 159 -38 0 -50 -5 -67 -27z"/>
</g>
</svg>
