<?xml version="1.0" standalone="no"?>
<!DOCTYPE svg PUBLIC "-//W3C//DTD SVG 20010904//EN"
 "http://www.w3.org/TR/2001/REC-SVG-20010904/DTD/svg10.dtd">
<svg version="1.0" xmlns="http://www.w3.org/2000/svg"
 width="3110.000000pt" height="1036.000000pt" viewBox="0 0 3110.000000 1036.000000"
 preserveAspectRatio="xMidYMid meet">

<g transform="translate(0.000000,1036.000000) scale(0.100000,-0.100000)"
fill="#000000" stroke="none">
<path d="M27866 10147 c-31 -599 -39 -690 -82 -967 -67 -427 -220 -881 -421
-1256 -86 -161 -182 -305 -300 -452 -67 -83 -347 -389 -544 -594 -235 -244
-370 -387 -395 -418 -15 -19 -55 -65 -88 -101 -205 -223 -436 -514 -569 -715
-153 -232 -292 -528 -362 -769 -31 -109 -71 -354 -80 -490 -11 -168 25 -434
78 -590 23 -66 93 -215 101 -215 2 0 -2 24 -10 53 -29 106 -44 235 -44 372 0
357 116 715 350 1085 179 283 378 499 795 864 311 271 281 246 489 416 218
178 569 492 700 625 303 308 576 736 758 1190 90 226 110 283 168 490 29 105
54 192 56 193 7 9 227 -194 389 -360 515 -525 849 -1032 1073 -1628 149 -398
218 -734 229 -1130 9 -337 -21 -602 -111 -962 -118 -473 -341 -926 -640 -1299
-96 -120 -311 -340 -436 -446 -322 -274 -713 -497 -1166 -667 -92 -34 -449
-130 -581 -156 -114 -22 -348 -46 -528 -55 -99 -5 -117 -3 -101 7 11 7 47 32
80 55 34 23 91 62 127 87 76 51 318 237 429 329 95 79 409 391 486 483 358
429 596 882 753 1439 43 154 78 366 101 610 12 128 12 400 1 465 l-8 45 -2
-57 c-1 -56 -21 -236 -42 -376 -24 -163 -137 -544 -211 -716 -22 -50 -55 -125
-73 -166 -18 -41 -54 -113 -80 -160 -27 -47 -63 -112 -80 -145 -36 -69 -190
-298 -243 -364 -20 -24 -56 -71 -80 -104 -57 -77 -409 -430 -487 -487 -33 -25
-85 -65 -116 -90 -54 -44 -246 -179 -404 -283 -44 -29 -150 -94 -235 -143
-139 -81 -210 -119 -415 -223 -71 -36 -391 -181 -399 -181 -3 0 -81 -30 -173
-66 -335 -132 -949 -311 -1278 -373 -538 -101 -819 -141 -1180 -166 -557 -38
-942 -49 -1325 -36 -620 22 -1038 58 -1565 136 -165 25 -334 49 -375 55 -137
19 -801 151 -1065 212 -143 32 -321 73 -395 89 -74 17 -225 55 -335 84 -110
29 -227 59 -260 65 -33 7 -130 32 -215 57 -85 25 -213 60 -285 78 -171 43
-840 234 -1300 372 -121 36 -267 78 -325 93 -58 15 -179 51 -268 79 -90 28
-185 56 -210 61 -26 6 -153 42 -282 80 -258 75 -659 188 -985 276 -202 54
-294 78 -490 125 -49 12 -148 37 -220 56 -71 19 -191 47 -265 63 -74 15 -256
55 -405 88 -249 56 -801 161 -1025 196 -260 41 -911 116 -1215 140 -557 45
-1261 62 -1845 47 -761 -20 -1074 -45 -1795 -141 -346 -47 -457 -65 -760 -125
-121 -24 -249 -48 -285 -55 -67 -11 -579 -134 -730 -175 -282 -75 -891 -272
-1175 -379 -608 -230 -1235 -530 -1745 -834 -41 -25 -99 -59 -128 -76 -55 -32
-362 -233 -467 -306 -134 -93 -373 -281 -614 -482 -88 -73 -499 -482 -591
-587 -104 -119 -101 -122 16 -16 391 358 812 667 1326 973 75 45 140 82 143
82 4 0 57 28 119 63 107 61 362 189 591 297 160 76 348 153 790 324 217 84
892 298 1105 351 36 9 175 43 310 76 245 60 639 143 950 199 285 51 912 133
1250 164 888 81 2191 77 3115 -10 519 -48 1038 -121 1470 -204 138 -27 279
-54 315 -60 75 -13 629 -137 805 -181 323 -80 674 -171 800 -207 77 -23 163
-46 190 -52 28 -6 156 -42 285 -80 381 -111 506 -148 675 -196 88 -25 251 -75
363 -110 112 -35 209 -64 216 -64 7 0 112 -31 233 -69 121 -38 240 -75 264
-81 24 -6 154 -44 289 -85 433 -130 683 -203 770 -225 47 -12 157 -43 245 -69
88 -27 194 -56 235 -66 41 -10 154 -39 250 -66 161 -44 909 -229 990 -244 19
-4 148 -32 285 -62 138 -30 340 -70 450 -88 769 -131 751 -128 1150 -169 262
-28 508 -49 795 -68 251 -17 1236 -17 1475 0 516 37 1012 98 1335 164 80 16
222 45 315 64 233 47 661 169 950 269 406 142 734 283 1070 462 143 76 203
111 380 216 50 30 50 30 120 18 340 -60 656 -73 995 -40 321 31 694 127 1025
262 168 69 174 72 324 151 550 292 971 672 1318 1188 63 95 243 400 243 413 0
3 31 74 69 158 183 403 295 855 332 1337 14 182 7 497 -15 680 -62 513 -197
945 -463 1480 -123 247 -308 548 -428 695 -17 22 -54 70 -82 107 -63 84 -114
143 -288 331 -181 195 -203 217 -371 372 -253 233 -460 401 -854 691 -52 39
-140 103 -195 144 -55 40 -143 106 -196 146 l-97 72 -6 -131z"/>
</g>
</svg>
