<?xml version="1.0" standalone="no"?>
<!DOCTYPE svg PUBLIC "-//W3C//DTD SVG 20010904//EN"
 "http://www.w3.org/TR/2001/REC-SVG-20010904/DTD/svg10.dtd">
<svg version="1.0" xmlns="http://www.w3.org/2000/svg"
 width="3199.000000pt" height="1357.000000pt" viewBox="0 0 3199.000000 1357.000000"
 preserveAspectRatio="xMidYMid meet">

<g transform="translate(0.000000,1357.000000) scale(0.100000,-0.100000)"
fill="#000000" stroke="none">
<path d="M30055 13389 c-159 -10 -394 -45 -514 -74 -185 -45 -442 -136 -611
-215 -162 -77 -396 -212 -475 -274 -22 -18 -65 -49 -95 -71 -169 -119 -399
-350 -570 -574 -140 -183 -303 -504 -364 -715 -55 -189 -70 -314 -70 -561 0
-344 37 -540 150 -785 64 -141 65 -144 155 -265 76 -102 183 -210 247 -250 41
-25 43 -28 38 -63 -47 -287 -47 -809 0 -1221 8 -73 14 -135 12 -136 -2 -2 -50
39 -108 92 -191 174 -401 333 -617 466 -81 50 -375 196 -476 237 -40 17 -59
30 -62 44 -43 229 -84 343 -181 513 -286 498 -890 860 -1625 975 -125 20 -182
23 -424 23 -396 0 -563 -27 -937 -150 -163 -54 -436 -174 -563 -247 -33 -20
-92 -53 -131 -76 -86 -49 -291 -190 -359 -246 -27 -23 -68 -55 -90 -71 -111
-81 -436 -397 -556 -540 -269 -322 -462 -621 -634 -985 -82 -174 -93 -201
-185 -460 -90 -255 -185 -678 -214 -960 -42 -405 -47 -945 -12 -1385 9 -110
23 -297 31 -415 21 -288 15 -268 71 -228 25 18 85 64 134 103 49 38 131 102
182 142 51 39 122 94 158 122 84 65 330 221 445 283 412 221 814 360 1200 415
142 21 570 20 995 -2 856 -43 1416 -23 1752 64 227 59 402 126 573 219 308
167 532 387 665 650 34 68 60 125 58 127 -2 3 -32 -33 -66 -79 -230 -303 -594
-509 -1064 -601 -182 -35 -365 -49 -578 -42 -242 8 -436 33 -1295 167 -498 77
-642 92 -885 92 -292 0 -479 -25 -815 -107 -212 -52 -525 -165 -735 -266 -80
-38 -149 -69 -153 -69 -19 0 -1 428 29 680 20 170 69 461 94 562 23 91 110
371 143 458 77 207 247 548 366 735 302 477 748 928 1186 1198 149 93 176 107
343 185 229 108 493 191 728 229 157 26 649 25 814 0 355 -56 697 -185 942
-357 121 -84 308 -271 380 -380 61 -92 148 -248 148 -266 0 -7 -47 4 -121 27
-246 79 -484 112 -799 112 -280 1 -500 -24 -710 -79 -586 -153 -1057 -443
-1386 -855 -54 -68 -207 -309 -231 -364 -7 -15 29 29 106 130 65 85 176 199
303 312 170 151 500 333 775 427 306 104 528 139 878 139 346 0 569 -36 876
-143 329 -115 688 -329 970 -579 147 -131 309 -304 451 -480 68 -85 231 -323
264 -386 15 -27 39 -68 54 -90 28 -41 157 -296 203 -401 129 -294 236 -645
284 -929 28 -168 25 -615 -6 -815 -64 -420 -185 -825 -355 -1190 -111 -237
-297 -551 -441 -744 -287 -385 -702 -794 -1045 -1031 -30 -21 -64 -45 -75 -55
-30 -26 -327 -225 -348 -233 -9 -3 -48 -26 -85 -51 -170 -111 -621 -334 -837
-413 -304 -113 -636 -213 -854 -258 -209 -43 -594 -96 -846 -115 -179 -14
-686 -14 -875 0 -462 34 -901 98 -1325 195 -104 23 -208 46 -230 50 -22 4
-139 35 -260 70 -121 35 -236 66 -255 70 -49 11 -596 191 -770 255 -226 82
-541 205 -695 270 -77 33 -158 66 -180 74 -22 8 -92 37 -155 66 -63 29 -160
71 -215 95 -220 95 -560 255 -840 396 -367 184 -593 310 -1300 724 -295 172
-382 223 -505 294 -69 40 -168 98 -220 128 -52 31 -138 79 -190 108 -52 29
-165 92 -250 140 -85 48 -204 115 -265 147 -60 33 -121 67 -135 76 -78 50
-834 443 -1110 578 -492 240 -812 385 -1145 521 -60 24 -159 65 -220 90 -60
26 -176 70 -258 99 -81 29 -152 56 -158 60 -10 6 -367 130 -559 194 -183 60
-539 170 -615 189 -44 11 -161 42 -260 69 -99 27 -214 57 -255 66 -41 9 -172
38 -290 65 -285 65 -623 127 -1070 195 -273 42 -867 98 -1350 128 -266 16
-1162 16 -1430 0 -1054 -64 -1657 -144 -2730 -363 -905 -185 -2132 -562 -3125
-962 -82 -33 -193 -77 -245 -97 -141 -56 -170 -69 -170 -79 0 -5 51 8 112 29
270 93 967 312 1123 353 50 13 187 51 305 84 118 34 271 75 340 92 69 17 197
49 285 71 232 58 713 164 910 200 694 128 656 122 1125 185 638 86 889 106
1680 136 616 23 1527 -10 2110 -77 212 -24 811 -111 960 -138 299 -56 735
-149 934 -200 116 -30 236 -59 266 -65 148 -31 846 -246 1145 -353 94 -34 206
-73 250 -88 44 -15 139 -51 210 -80 72 -28 166 -65 210 -81 44 -15 136 -53
204 -84 69 -30 129 -55 135 -55 5 0 73 -29 150 -64 78 -36 182 -82 231 -104
190 -84 498 -230 680 -323 255 -131 399 -206 515 -270 74 -41 168 -92 208
-114 41 -22 126 -71 190 -109 65 -37 127 -72 139 -77 12 -4 51 -26 85 -48 35
-21 115 -68 178 -103 63 -36 138 -78 165 -95 82 -50 257 -154 305 -181 25 -14
90 -53 145 -87 55 -34 134 -82 175 -107 41 -25 134 -81 205 -125 72 -44 155
-95 185 -113 30 -18 105 -64 165 -101 475 -290 621 -377 1030 -614 413 -239
1309 -702 1600 -825 55 -23 134 -59 175 -79 41 -21 91 -43 110 -51 19 -7 107
-44 195 -81 548 -233 1136 -441 1665 -589 549 -153 1167 -270 1710 -324 495
-50 1004 -48 1466 4 219 25 584 83 722 115 197 47 536 144 662 190 69 26 163
60 210 77 47 17 132 52 190 78 58 26 132 59 165 73 147 62 531 273 697 383 53
35 100 64 103 64 14 0 412 294 534 394 303 250 599 537 772 749 165 203 335
436 419 576 19 32 59 97 88 145 65 107 199 369 270 528 97 215 199 517 257
758 95 399 115 547 122 920 4 233 2 328 -11 450 -21 197 -73 457 -127 630 -82
267 -245 635 -395 896 -123 212 -225 591 -285 1054 -52 408 -41 685 51 1226
46 273 68 368 149 651 170 597 426 1150 824 1784 l37 60 -40 -24 c-94 -56
-293 -221 -425 -352 -379 -379 -670 -858 -851 -1405 -68 -205 -104 -336 -125
-457 -7 -40 -16 -73 -20 -73 -20 0 -94 106 -148 210 -119 229 -155 395 -155
705 0 353 46 572 180 850 252 525 789 989 1424 1232 138 53 423 126 598 153
240 38 652 36 939 -4 l83 -11 -81 -123 c-86 -132 -226 -396 -254 -477 -9 -27
-32 -92 -51 -143 -51 -138 -91 -302 -108 -453 -13 -108 -16 -256 -16 -760 0
-644 -5 -757 -41 -939 -22 -111 -95 -344 -131 -413 -52 -105 -146 -244 -211
-313 -78 -84 -204 -184 -270 -215 l-42 -20 45 7 c55 8 172 60 260 117 252 160
481 494 579 842 80 284 101 409 151 911 43 426 64 606 81 694 24 127 61 264
90 337 40 102 150 328 181 374 14 19 41 64 62 98 50 86 198 278 293 381 43 47
149 154 236 239 86 85 157 157 157 161 0 4 -48 17 -107 29 -60 13 -209 44
-333 71 -311 68 -368 77 -575 100 -340 38 -525 45 -750 29z"/>
</g>
</svg>
